<?xml version="1.0" encoding="utf-8"?>
<!-- Generator: Adobe Illustrator 25.0.1, SVG Export Plug-In . SVG Version: 6.00 Build 0)  -->
<svg version="1.1" id="Capa_1" xmlns="http://www.w3.org/2000/svg" xmlns:xlink="http://www.w3.org/1999/xlink" x="0px" y="0px"
	 viewBox="0 0 480 480" style="enable-background:new 0 0 480 480;" xml:space="preserve">
<style type="text/css">
	.st0{fill:#5A5A5A;}
</style>
<path class="st0" d="M383.32,60H268.07l-50,20H180V61.58C180,49.66,170.34,40,158.42,40h-46.84C99.66,40,90,49.66,90,61.58v27.19
	l-10,40v15.31l115.99-16.88c13.99-1.86,27.64,5.89,33.2,18.86l0.17,0.41l41.84,110.93c6.18,14.59,5.69,31.05-1.34,45.25L207.99,440
	h156.15L400,404.14V76.68C400,67.47,392.53,60,383.32,60z M360,238.49c0,8.17-4.15,15.62-11.1,19.92
	c-3.79,2.34-8.04,3.52-12.31,3.52c-3.57,0-7.15-0.83-10.48-2.49c-20.43-10.2-22-11.47-23.58-15.62l-37.49-98.7
	c-2.11-5.55-1.84-11.81,0.75-17.16c2.59-5.35,7.32-9.45,12.98-11.24l57.18-18.12l0.54-0.11c5.8-1.16,11.74,0.32,16.31,4.07
	s7.19,9.29,7.19,15.2V238.49z M175.69,440h-60.93C95.56,440,80,424.44,80,405.24V166.08v-1.79l118.68-17.27
	c5.06-0.65,9.97,2.12,12.05,6.76l41.82,110.89l0.17,0.41c3.98,9.28,3.67,19.79-0.85,28.83l-0.09,0.18L186.06,440H175.69z"/>
</svg>
