<?xml version="1.0" encoding="utf-8"?>
<!-- Generator: Adobe Illustrator 24.0.0, SVG Export Plug-In . SVG Version: 6.00 Build 0)  -->
<svg version="1.1" id="Capa_1" xmlns="http://www.w3.org/2000/svg" xmlns:xlink="http://www.w3.org/1999/xlink" x="0px" y="0px"
	 viewBox="0 0 480 480" style="enable-background:new 0 0 480 480;" xml:space="preserve">
<style type="text/css">
	.st0{fill:#5A5A5A;}
	.st1{fill:#FFFFFF;}
</style>
<g>
	<path class="st0" d="M120,130h60c16.54,0,30,13.46,30,30v50H90v-50C90,143.46,103.46,130,120,130z M160,110V87.19h-30V110H160z
		 M330,150h30v-22.81h-30V150z M290,210h110v-40H290V210z M51.58,230l23.09,155.62c3.07,19.44,19.83,33.76,39.51,33.76h251.64
		c14.96-12.79,24.55-20.97,39.51-33.76L428.42,230H51.58z M230,160v50h40v-60h40v-42.81h30V60H210v30h80v20h-80v10.09
		C222.12,129.23,230,143.69,230,160z"/>
	<g>
		<path class="st1" d="M322.93,302.93l-11.7,11.7C308.47,278.54,278.29,250,241.5,250c-21.6,0-40.94,9.84-53.79,25.27l14.25,14.24
			c9.15-11.84,23.45-19.51,39.54-19.51c25.34,0,46.29,18.97,49.52,43.45l-10.52-10.52l-14.14,14.14l35.35,35.36l35.35-35.36
			L322.93,302.93z"/>
		<path class="st1" d="M241.5,370c-22.13,0-40.92-14.47-47.49-34.43l11.47,9.97l13.12-15.09l-37.74-32.8l-32.8,37.74l15.09,13.12
			l10.39-11.96c7.46,30.63,35.05,53.46,67.94,53.46c19.18,0,36.57-7.76,49.23-20.3l-14.14-14.14C267.56,364.48,255.16,370,241.5,370
			z"/>
	</g>
</g>
</svg>
