<?xml version="1.0" encoding="utf-8"?>
<!-- Generator: Adobe Illustrator 24.0.1, SVG Export Plug-In . SVG Version: 6.00 Build 0)  -->
<svg version="1.1" id="Capa_1" xmlns="http://www.w3.org/2000/svg" xmlns:xlink="http://www.w3.org/1999/xlink" x="0px" y="0px"
	 viewBox="0 0 480 480" style="enable-background:new 0 0 480 480;" xml:space="preserve">
<style type="text/css">
	.st0{fill:#5A5A5A;}
</style>
<path class="st0" d="M420,150c7.81-7.81,12.19-12.19,20-20V80H60c-11.05,0-20,8.95-20,20v50h270v230h-59.65V210
	c-7.81-7.81-12.19-12.19-20-20h-97.06v-0.16c-12.11,0-23.21,4.81-31.25,13.53c-7.71,8.37-11.96,19.62-11.96,31.68v51.04L130,327.79
	V380H40v20h270h20h110v-20h-80h-30V150H420z M150,210h70c3.91,3.91,6.09,6.09,10,10v59h-80V210z M109.92,278.13v-43.08
	c0-13.48,8.27-23.56,20.08-25.15v89.19L109.92,278.13z"/>
</svg>
