<?xml version="1.0" encoding="utf-8"?>
<!-- Generator: Adobe Illustrator 24.0.0, SVG Export Plug-In . SVG Version: 6.00 Build 0)  -->
<svg version="1.1" id="Capa_1" xmlns="http://www.w3.org/2000/svg" xmlns:xlink="http://www.w3.org/1999/xlink" x="0px" y="0px"
	 viewBox="0 0 480 480" style="enable-background:new 0 0 480 480;" xml:space="preserve">
<style type="text/css">
	.st0{fill:#5A5A5A;}
</style>
<path class="st0" d="M326.51,117.63l20.56-20.56l-14.14-14.14l-27.39,27.39c-1.82-0.2-3.67-0.31-5.54-0.31h-30V80
	c0-16.54-13.46-30-30-30s-30,13.46-30,30v30h-30c-1.87,0-3.72,0.11-5.54,0.31l-27.39-27.39l-14.14,14.14l20.56,20.56
	C139.4,126.49,130,142.16,130,160v240c0,22.06,17.94,40,40,40h154.14L350,414.14V160C350,142.16,340.6,126.49,326.51,117.63z
	 M165,380h-20.2v-20H165V380z M205.1,380h-20.2v-20h20.2V380z M245.2,380H225v-20h20.2V380z M250,110h-20V80c0-5.51,4.49-10,10-10
	s10,4.49,10,10V110z M285.3,380h-20.2v-20h20.2V380z M325.39,380h-20.2v-20h20.2V380z"/>
</svg>
