<?xml version="1.0" encoding="utf-8"?>
<!-- Generator: Adobe Illustrator 24.0.0, SVG Export Plug-In . SVG Version: 6.00 Build 0)  -->
<svg version="1.1" id="Capa_1" xmlns="http://www.w3.org/2000/svg" xmlns:xlink="http://www.w3.org/1999/xlink" x="0px" y="0px"
	 viewBox="0 0 480 480" style="enable-background:new 0 0 480 480;" xml:space="preserve">
<style type="text/css">
	.st0{fill:#5A5A5A;}
	.st1{fill:#FFFFFF;}
</style>
<g>
	<path class="st0" d="M219.28,109.69H90.72c-27.97,0-50.72,22.75-50.72,50.72v48.56c0,27.97,22.75,50.72,50.72,50.72h128.56
		c27.97,0,50.72-22.75,50.72-50.72v-48.56C270,132.44,247.25,109.69,219.28,109.69z"/>
	<path class="st1" d="M161.88,152.43l-6.88-6.52l-6.88,6.52c-5.42,5.14-23.12,23.02-23.12,37.26c0,16.54,13.46,30,30,30
		s30-13.46,30-30C185,175.45,167.3,157.57,161.88,152.43z"/>
	<path class="st0" d="M360,110h-70V90h70V110z M390,360c0-22.06-17.94-40-40-40s-40,17.94-40,40s17.94,40,40,40S390,382.06,390,360z
		 M370,360c0,11.03-8.97,20-20,20c-11.03,0-20-8.97-20-20s8.97-20,20-20C361.03,340,370,348.97,370,360z M150,360
		c0-22.06-17.94-40-40-40s-40,17.94-40,40s17.94,40,40,40S150,382.06,150,360z M130,360c0,11.03-8.97,20-20,20s-20-8.97-20-20
		s8.97-20,20-20S130,348.97,130,360z M250,360c0-22.06-17.94-40-40-40s-40,17.94-40,40s17.94,40,40,40S250,382.06,250,360z M230,360
		c0,11.03-8.97,20-20,20c-11.03,0-20-8.97-20-20s8.97-20,20-20C221.03,340,230,348.97,230,360z M370,237.19h50V200h-50V237.19z
		 M421.34,257.19H350V180h70c0-27.57-22.43-50-50-50h-80v150H40v50c0,9.09,4.08,17.23,10.48,22.74C54.09,323.07,79.38,300,110,300
		c20.86,0,39.24,10.71,50,26.91c10.76-16.2,29.14-26.91,50-26.91c33.08,0,60,26.92,60,60v0h20v0c0-33.08,26.92-60,60-60
		s60,26.92,60,60v0h30v-84.14L421.34,257.19z"/>
</g>
</svg>
