<?xml version="1.0" encoding="utf-8"?>
<!-- Generator: Adobe Illustrator 24.0.0, SVG Export Plug-In . SVG Version: 6.00 Build 0)  -->
<svg version="1.1" id="Capa_1" xmlns="http://www.w3.org/2000/svg" xmlns:xlink="http://www.w3.org/1999/xlink" x="0px" y="0px"
	 viewBox="0 0 480 480" style="enable-background:new 0 0 480 480;" xml:space="preserve">
<style type="text/css">
	.st0{fill:none;stroke:#5A5A5A;stroke-width:20;stroke-miterlimit:10;}
	.st1{fill:#5A5A5A;}
</style>
<path class="st1" d="M360,260v144.14L334.14,430H222.89v-0.04H140c-27.57,0-50-22.43-50-50V260h20v119.96c0,16.54,13.46,30,30,30
	h82.89V410h102.97L340,395.86V260H360z M309.68,322.83l2.78-13.24h-27.4l-2.2,8.37l-23.77-0.08l-0.6,0.77
	c-13.43,17.2-34.57,26.89-52.61,24.08c-9.65-1.5-17.37-6.56-21.74-14.24c-3.38-5.95-4.64-13.27-3.68-21.24l99.17,0.15
	c0,0,0,0,0.01,0c2.47,0,4.66-1.63,5.34-3.96c4.37-15.08,3.07-29.89-3.65-41.72c-6.95-12.22-18.94-20.23-33.76-22.53
	c-20.71-3.21-44.28,5.53-61.69,22.83h-43.71l-4.77,18.44h54.5l0.6-0.76c11.81-15.05,29.47-24.39,46.08-24.39
	c2.18,0,4.33,0.16,6.4,0.49c9.65,1.5,17.37,6.56,21.74,14.24c3.35,5.89,4.62,13.12,3.7,21.01l-103.21-0.09l-0.46,1.36
	c-1.19,3.55-2.06,7.23-2.63,10.95h-0.04l-0.22,1.75c0,0.01,0,0.02,0,0.03l-0.28,2.22h0.04c-0.96,10.84,1.06,21.01,5.91,29.54
	c6.95,12.23,18.94,20.23,33.76,22.53c2.83,0.44,5.76,0.66,8.69,0.66c18.43,0,38.18-8.78,53-23.52h14.33l-2.41,9.24l27.88,0
	l2.79-13.24h-14.25l2.15-9.65H309.68z M390.28,239.93l-14.8,13.46L223.7,86.45c-0.8-0.69-1.53-0.69-2.33,0L70.3,253.36l-14.83-13.42
	L207.05,72.46l0.24-0.23c8.68-8.39,21.77-8.4,30.46-0.02l0.46,0.47l31.9,35.08c12.81-11.92,28.59-18.18,46.24-18.18
	c37.65,0,68.28,30.63,68.28,68.28c0,19.72-8.33,38.02-22.72,50.85L390.28,239.93z M294.56,73.05l-11.89-27.07l-18.31,8.04
	l11.89,27.07L294.56,73.05z M367.05,53.87l-18.64-7.26l-10.73,27.55l18.64,7.26L367.05,53.87z M421.13,119.1l-8.04-18.31
	l-27.07,11.89l8.04,18.31L421.13,119.1z M420.51,184.85l-27.55-10.73l-7.26,18.64l27.55,10.73L420.51,184.85z"/>
</svg>
