<?xml version="1.0" encoding="utf-8"?>
<!-- Generator: Adobe Illustrator 24.0.0, SVG Export Plug-In . SVG Version: 6.00 Build 0)  -->
<svg version="1.1" id="Capa_1" xmlns="http://www.w3.org/2000/svg" xmlns:xlink="http://www.w3.org/1999/xlink" x="0px" y="0px"
	 viewBox="0 0 480 480" style="enable-background:new 0 0 480 480;" xml:space="preserve">
<style type="text/css">
	.st0{fill:none;}
	.st1{fill:#5A5A5A;}
</style>
<circle class="st0" cx="120" cy="300" r="80"/>
<circle class="st0" cx="360" cy="300" r="80"/>
<path class="st1" d="M193.78,170L167.31,60h47.89l77.24,110H193.78z M441.29,265.8V310H296.18l20-40H193.2l-8.57,40h-53.34
	c-49.63,0-90-40.37-90-90v-90h56.18l30,60h236.62l40.74,40h-73.54v20h93.91L441.29,265.8z M231.29,230h-30v20h30V230z M291.29,230
	h-30v20h30V230z M209.37,290l-25.71,120h40.16l60-120H209.37z"/>
</svg>
