<?xml version="1.0" encoding="UTF-8"?>
<svg xmlns="http://www.w3.org/2000/svg" xmlns:xlink="http://www.w3.org/1999/xlink" width="32px" height="32px" viewBox="0 0 32 32" version="1.1">
<defs>
<radialGradient id="radial0" gradientUnits="userSpaceOnUse" cx="19.1111" cy="128.4444" fx="19.1111" fy="128.4444" r="163.5519" gradientTransform="matrix(0.148091,0,0,0.148091,6.522176,6.522176)">
<stop offset="0" style="stop-color:rgb(100%,69.411765%,25.098039%);stop-opacity:1;"/>
<stop offset="0.2559" style="stop-color:rgb(100%,32.941176%,27.058824%);stop-opacity:1;"/>
<stop offset="0.599" style="stop-color:rgb(98.823529%,16.862745%,50.980392%);stop-opacity:1;"/>
<stop offset="1" style="stop-color:rgb(55.686275%,25.098039%,71.764706%);stop-opacity:1;"/>
</radialGradient>
</defs>
<g id="surface1">
<path style=" stroke:none;fill-rule:evenodd;fill:url(#radial0);" d="M 22.195312 10.941406 C 22.195312 11.570312 21.6875 12.078125 21.058594 12.078125 C 20.429688 12.078125 19.921875 11.570312 19.921875 10.941406 C 19.921875 10.3125 20.429688 9.804688 21.058594 9.804688 C 21.6875 9.804688 22.195312 10.3125 22.195312 10.941406 Z M 16 19.160156 C 14.253906 19.160156 12.839844 17.746094 12.839844 16 C 12.839844 14.253906 14.253906 12.839844 16 12.839844 C 17.746094 12.839844 19.160156 14.253906 19.160156 16 C 19.160156 17.746094 17.746094 19.160156 16 19.160156 Z M 16 11.132812 C 13.3125 11.132812 11.132812 13.3125 11.132812 16 C 11.132812 18.6875 13.3125 20.867188 16 20.867188 C 18.6875 20.867188 20.867188 18.6875 20.867188 16 C 20.867188 13.3125 18.6875 11.132812 16 11.132812 Z M 16 8.230469 C 18.53125 8.230469 18.832031 8.238281 19.828125 8.285156 C 20.753906 8.328125 21.253906 8.480469 21.589844 8.613281 C 22.03125 8.785156 22.347656 8.988281 22.679688 9.320312 C 23.011719 9.652344 23.214844 9.96875 23.386719 10.410156 C 23.519531 10.746094 23.671875 11.246094 23.714844 12.171875 C 23.761719 13.167969 23.769531 13.46875 23.769531 16 C 23.769531 18.53125 23.761719 18.832031 23.714844 19.828125 C 23.671875 20.753906 23.519531 21.257812 23.386719 21.589844 C 23.214844 22.03125 23.011719 22.347656 22.679688 22.679688 C 22.347656 23.011719 22.03125 23.21875 21.589844 23.390625 C 21.253906 23.519531 20.753906 23.671875 19.828125 23.714844 C 18.832031 23.761719 18.53125 23.769531 16 23.769531 C 13.46875 23.769531 13.167969 23.761719 12.171875 23.714844 C 11.246094 23.671875 10.742188 23.519531 10.410156 23.390625 C 9.96875 23.21875 9.652344 23.011719 9.320312 22.679688 C 8.988281 22.347656 8.785156 22.03125 8.609375 21.589844 C 8.480469 21.257812 8.328125 20.753906 8.285156 19.828125 C 8.238281 18.832031 8.230469 18.53125 8.230469 16 C 8.230469 13.46875 8.238281 13.167969 8.285156 12.171875 C 8.328125 11.246094 8.480469 10.746094 8.609375 10.410156 C 8.785156 9.96875 8.988281 9.652344 9.320312 9.320312 C 9.652344 8.988281 9.96875 8.785156 10.410156 8.613281 C 10.742188 8.480469 11.246094 8.328125 12.171875 8.285156 C 13.167969 8.238281 13.46875 8.230469 16 8.230469 Z M 16 6.523438 C 13.425781 6.523438 13.101562 6.53125 12.09375 6.578125 C 11.082031 6.625 10.394531 6.785156 9.792969 7.019531 C 9.167969 7.261719 8.640625 7.585938 8.113281 8.113281 C 7.585938 8.640625 7.261719 9.167969 7.019531 9.792969 C 6.785156 10.394531 6.625 11.082031 6.578125 12.09375 C 6.53125 13.101562 6.523438 13.425781 6.523438 16 C 6.523438 18.574219 6.53125 18.898438 6.578125 19.90625 C 6.625 20.917969 6.785156 21.605469 7.019531 22.207031 C 7.261719 22.832031 7.585938 23.359375 8.113281 23.886719 C 8.640625 24.414062 9.167969 24.738281 9.792969 24.980469 C 10.394531 25.214844 11.082031 25.375 12.09375 25.421875 C 13.101562 25.46875 13.425781 25.476562 16 25.476562 C 18.574219 25.476562 18.898438 25.46875 19.90625 25.421875 C 20.917969 25.375 21.605469 25.214844 22.207031 24.980469 C 22.832031 24.738281 23.359375 24.414062 23.886719 23.886719 C 24.414062 23.359375 24.738281 22.832031 24.980469 22.207031 C 25.214844 21.605469 25.375 20.917969 25.421875 19.90625 C 25.46875 18.898438 25.476562 18.574219 25.476562 16 C 25.476562 13.425781 25.46875 13.101562 25.421875 12.09375 C 25.375 11.082031 25.214844 10.394531 24.980469 9.792969 C 24.738281 9.167969 24.414062 8.640625 23.886719 8.113281 C 23.359375 7.585938 22.832031 7.261719 22.207031 7.019531 C 21.605469 6.785156 20.917969 6.625 19.90625 6.578125 C 18.898438 6.53125 18.574219 6.523438 16 6.523438 Z M 16 6.523438 "/>
</g>
</svg>
