<svg width="32" height="32" viewBox="0 0 32 32" fill="none" xmlns="http://www.w3.org/2000/svg">
<rect opacity="0.01" width="32" height="32" rx="8" fill="white"/>
<path fill-rule="evenodd" clip-rule="evenodd" d="M24.5624 12.7794C24.5624 12.7794 24.3941 11.5776 23.8784 11.0484C23.224 10.3535 22.4906 10.3502 22.1545 10.3099C19.7467 10.1333 16.1349 10.1333 16.1349 10.1333H16.1274C16.1274 10.1333 12.5156 10.1333 10.1078 10.3099C9.7712 10.3502 9.03831 10.3535 8.38338 11.0484C7.86772 11.5776 7.69996 12.7794 7.69996 12.7794C7.69996 12.7794 7.52789 14.1909 7.52789 15.602V16.9253C7.52789 18.3369 7.69996 19.7479 7.69996 19.7479C7.69996 19.7479 7.86772 20.9497 8.38338 21.4789C9.03831 22.1738 9.8981 22.152 10.2809 22.2245C11.6575 22.3585 16.1312 22.4 16.1312 22.4C16.1312 22.4 19.7467 22.3945 22.1545 22.2179C22.4906 22.1771 23.224 22.1738 23.8784 21.4789C24.3941 20.9497 24.5624 19.7479 24.5624 19.7479C24.5624 19.7479 24.7345 18.3369 24.7345 16.9253V15.602C24.7345 14.1909 24.5624 12.7794 24.5624 12.7794Z" fill="#CE1312"/>
<path fill-rule="evenodd" clip-rule="evenodd" d="M14.3545 18.5287L14.354 13.6284L19.003 16.087L14.3545 18.5287Z" fill="white"/>
</svg>
