<svg width="32" height="32" viewBox="0 0 32 32" fill="none" xmlns="http://www.w3.org/2000/svg">
<rect opacity="0.01" width="32" height="32" rx="8" fill="white"/>
<path d="M25.3941 15.9525C25.2803 18.0599 23.5371 19.7334 21.4014 19.7334C19.1904 19.7334 17.4 17.9427 17.4 15.7329C17.4 13.5239 19.1906 11.7334 21.4014 11.7334C23.537 11.7334 25.2803 13.4067 25.3941 15.5135L25.4 15.7329L25.3941 15.9525Z" fill="#FF007F"/>
<path fill-rule="evenodd" clip-rule="evenodd" d="M14.4 15.7329C14.4 17.9419 12.6104 19.7334 10.3979 19.7334C8.1886 19.7334 6.40002 17.9419 6.40002 15.7329C6.40002 13.5249 8.1886 11.7334 10.3979 11.7334C12.6104 11.7334 14.4 13.5249 14.4 15.7329Z" fill="#0960D5"/>
</svg>
